<mxfile host="app.diagrams.net" agent="Mozilla/5.0 (Windows NT 10.0; Win64; x64) AppleWebKit/537.36 (KHTML, like Gecko) Chrome/130.0.0.0 Safari/537.36" version="24.8.2">
  <diagram id="C5RBs43oDa-KdzZeNtuy" name="Page-1">
    <mxGraphModel dx="836" dy="518" grid="1" gridSize="10" guides="1" tooltips="1" connect="1" arrows="1" fold="1" page="1" pageScale="1" pageWidth="827" pageHeight="1169" math="0" shadow="0">
      <root>
        <mxCell id="WIyWlLk6GJQsqaUBKTNV-0" />
        <mxCell id="WIyWlLk6GJQsqaUBKTNV-1" parent="WIyWlLk6GJQsqaUBKTNV-0" />
        <mxCell id="XLbYOeynP4Yj3D1F5Rad-4" value="Start" style="strokeWidth=2;html=1;shape=mxgraph.flowchart.terminator;whiteSpace=wrap;" vertex="1" parent="WIyWlLk6GJQsqaUBKTNV-1">
          <mxGeometry x="320" y="590" width="120" height="60" as="geometry" />
        </mxCell>
        <mxCell id="XLbYOeynP4Yj3D1F5Rad-5" value="" style="endArrow=classic;html=1;rounded=0;" edge="1" parent="WIyWlLk6GJQsqaUBKTNV-1" source="XLbYOeynP4Yj3D1F5Rad-4">
          <mxGeometry width="50" height="50" relative="1" as="geometry">
            <mxPoint x="380" y="700" as="sourcePoint" />
            <mxPoint x="380" y="720.7106781186548" as="targetPoint" />
          </mxGeometry>
        </mxCell>
        <mxCell id="XLbYOeynP4Yj3D1F5Rad-7" style="edgeStyle=orthogonalEdgeStyle;rounded=0;orthogonalLoop=1;jettySize=auto;html=1;exitX=0.5;exitY=1;exitDx=0;exitDy=0;" edge="1" parent="WIyWlLk6GJQsqaUBKTNV-1" source="XLbYOeynP4Yj3D1F5Rad-6">
          <mxGeometry relative="1" as="geometry">
            <mxPoint x="380" y="840" as="targetPoint" />
          </mxGeometry>
        </mxCell>
        <mxCell id="XLbYOeynP4Yj3D1F5Rad-6" value="Input bilangan A,B,C" style="rounded=0;whiteSpace=wrap;html=1;" vertex="1" parent="WIyWlLk6GJQsqaUBKTNV-1">
          <mxGeometry x="320" y="720" width="120" height="60" as="geometry" />
        </mxCell>
        <mxCell id="XLbYOeynP4Yj3D1F5Rad-9" style="edgeStyle=orthogonalEdgeStyle;rounded=0;orthogonalLoop=1;jettySize=auto;html=1;exitX=0;exitY=0.5;exitDx=0;exitDy=0;exitPerimeter=0;entryX=0.5;entryY=0;entryDx=0;entryDy=0;entryPerimeter=0;" edge="1" parent="WIyWlLk6GJQsqaUBKTNV-1" source="XLbYOeynP4Yj3D1F5Rad-8" target="XLbYOeynP4Yj3D1F5Rad-10">
          <mxGeometry relative="1" as="geometry">
            <mxPoint x="200" y="890" as="targetPoint" />
            <Array as="points">
              <mxPoint x="200" y="890" />
              <mxPoint x="200" y="940" />
            </Array>
          </mxGeometry>
        </mxCell>
        <mxCell id="XLbYOeynP4Yj3D1F5Rad-18" value="Yes" style="edgeLabel;html=1;align=center;verticalAlign=middle;resizable=0;points=[];" vertex="1" connectable="0" parent="XLbYOeynP4Yj3D1F5Rad-9">
          <mxGeometry x="0.8714" y="-2" relative="1" as="geometry">
            <mxPoint as="offset" />
          </mxGeometry>
        </mxCell>
        <mxCell id="XLbYOeynP4Yj3D1F5Rad-11" style="edgeStyle=orthogonalEdgeStyle;rounded=0;orthogonalLoop=1;jettySize=auto;html=1;" edge="1" parent="WIyWlLk6GJQsqaUBKTNV-1" source="XLbYOeynP4Yj3D1F5Rad-8">
          <mxGeometry relative="1" as="geometry">
            <mxPoint x="520" y="960" as="targetPoint" />
          </mxGeometry>
        </mxCell>
        <mxCell id="XLbYOeynP4Yj3D1F5Rad-17" value="NO" style="edgeLabel;html=1;align=center;verticalAlign=middle;resizable=0;points=[];" vertex="1" connectable="0" parent="XLbYOeynP4Yj3D1F5Rad-11">
          <mxGeometry x="0.9376" y="1" relative="1" as="geometry">
            <mxPoint as="offset" />
          </mxGeometry>
        </mxCell>
        <mxCell id="XLbYOeynP4Yj3D1F5Rad-8" value="A&amp;gt;B?" style="strokeWidth=2;html=1;shape=mxgraph.flowchart.decision;whiteSpace=wrap;" vertex="1" parent="WIyWlLk6GJQsqaUBKTNV-1">
          <mxGeometry x="330" y="840" width="100" height="100" as="geometry" />
        </mxCell>
        <mxCell id="XLbYOeynP4Yj3D1F5Rad-19" style="edgeStyle=orthogonalEdgeStyle;rounded=0;orthogonalLoop=1;jettySize=auto;html=1;exitX=1;exitY=0.5;exitDx=0;exitDy=0;exitPerimeter=0;" edge="1" parent="WIyWlLk6GJQsqaUBKTNV-1" source="XLbYOeynP4Yj3D1F5Rad-10">
          <mxGeometry relative="1" as="geometry">
            <mxPoint x="290" y="1110" as="targetPoint" />
          </mxGeometry>
        </mxCell>
        <mxCell id="XLbYOeynP4Yj3D1F5Rad-27" value="No" style="edgeLabel;html=1;align=center;verticalAlign=middle;resizable=0;points=[];" vertex="1" connectable="0" parent="XLbYOeynP4Yj3D1F5Rad-19">
          <mxGeometry x="0.7562" y="-2" relative="1" as="geometry">
            <mxPoint as="offset" />
          </mxGeometry>
        </mxCell>
        <mxCell id="XLbYOeynP4Yj3D1F5Rad-20" style="edgeStyle=orthogonalEdgeStyle;rounded=0;orthogonalLoop=1;jettySize=auto;html=1;exitX=0;exitY=0.5;exitDx=0;exitDy=0;exitPerimeter=0;entryX=0.5;entryY=0;entryDx=0;entryDy=0;" edge="1" parent="WIyWlLk6GJQsqaUBKTNV-1" source="XLbYOeynP4Yj3D1F5Rad-10" target="XLbYOeynP4Yj3D1F5Rad-21">
          <mxGeometry relative="1" as="geometry">
            <mxPoint x="80" y="1100" as="targetPoint" />
            <Array as="points">
              <mxPoint x="80" y="990" />
            </Array>
          </mxGeometry>
        </mxCell>
        <mxCell id="XLbYOeynP4Yj3D1F5Rad-26" value="Yes" style="edgeLabel;html=1;align=center;verticalAlign=middle;resizable=0;points=[];" vertex="1" connectable="0" parent="XLbYOeynP4Yj3D1F5Rad-20">
          <mxGeometry x="0.8591" y="-1" relative="1" as="geometry">
            <mxPoint as="offset" />
          </mxGeometry>
        </mxCell>
        <mxCell id="XLbYOeynP4Yj3D1F5Rad-10" value="A&amp;gt;C?" style="strokeWidth=2;html=1;shape=mxgraph.flowchart.decision;whiteSpace=wrap;" vertex="1" parent="WIyWlLk6GJQsqaUBKTNV-1">
          <mxGeometry x="150" y="940" width="100" height="100" as="geometry" />
        </mxCell>
        <mxCell id="XLbYOeynP4Yj3D1F5Rad-23" style="edgeStyle=orthogonalEdgeStyle;rounded=0;orthogonalLoop=1;jettySize=auto;html=1;exitX=0;exitY=0.5;exitDx=0;exitDy=0;exitPerimeter=0;" edge="1" parent="WIyWlLk6GJQsqaUBKTNV-1" source="XLbYOeynP4Yj3D1F5Rad-12">
          <mxGeometry relative="1" as="geometry">
            <mxPoint x="440" y="1110" as="targetPoint" />
          </mxGeometry>
        </mxCell>
        <mxCell id="XLbYOeynP4Yj3D1F5Rad-33" value="Yes" style="edgeLabel;html=1;align=center;verticalAlign=middle;resizable=0;points=[];" vertex="1" connectable="0" parent="XLbYOeynP4Yj3D1F5Rad-23">
          <mxGeometry x="0.7299" y="2" relative="1" as="geometry">
            <mxPoint as="offset" />
          </mxGeometry>
        </mxCell>
        <mxCell id="XLbYOeynP4Yj3D1F5Rad-29" style="edgeStyle=orthogonalEdgeStyle;rounded=0;orthogonalLoop=1;jettySize=auto;html=1;exitX=1;exitY=0.5;exitDx=0;exitDy=0;exitPerimeter=0;" edge="1" parent="WIyWlLk6GJQsqaUBKTNV-1" source="XLbYOeynP4Yj3D1F5Rad-12">
          <mxGeometry relative="1" as="geometry">
            <mxPoint x="620.0000000000002" y="1110" as="targetPoint" />
          </mxGeometry>
        </mxCell>
        <mxCell id="XLbYOeynP4Yj3D1F5Rad-34" value="No" style="edgeLabel;html=1;align=center;verticalAlign=middle;resizable=0;points=[];" vertex="1" connectable="0" parent="XLbYOeynP4Yj3D1F5Rad-29">
          <mxGeometry x="0.7259" relative="1" as="geometry">
            <mxPoint as="offset" />
          </mxGeometry>
        </mxCell>
        <mxCell id="XLbYOeynP4Yj3D1F5Rad-12" value="B&amp;gt;C?" style="strokeWidth=2;html=1;shape=mxgraph.flowchart.decision;whiteSpace=wrap;" vertex="1" parent="WIyWlLk6GJQsqaUBKTNV-1">
          <mxGeometry x="470" y="960" width="100" height="100" as="geometry" />
        </mxCell>
        <mxCell id="XLbYOeynP4Yj3D1F5Rad-21" value="A&amp;nbsp; adalah bilangan terbesar" style="rounded=0;whiteSpace=wrap;html=1;" vertex="1" parent="WIyWlLk6GJQsqaUBKTNV-1">
          <mxGeometry x="20" y="1109" width="120" height="60" as="geometry" />
        </mxCell>
        <mxCell id="XLbYOeynP4Yj3D1F5Rad-25" value="C adalah bilangan terbesar" style="rounded=0;whiteSpace=wrap;html=1;" vertex="1" parent="WIyWlLk6GJQsqaUBKTNV-1">
          <mxGeometry x="230" y="1109" width="120" height="60" as="geometry" />
        </mxCell>
        <mxCell id="XLbYOeynP4Yj3D1F5Rad-28" value="B adalah bilangan terbesar" style="rounded=0;whiteSpace=wrap;html=1;" vertex="1" parent="WIyWlLk6GJQsqaUBKTNV-1">
          <mxGeometry x="380" y="1109" width="120" height="60" as="geometry" />
        </mxCell>
        <mxCell id="XLbYOeynP4Yj3D1F5Rad-30" value="C adalah bilangan terbesar" style="rounded=0;whiteSpace=wrap;html=1;" vertex="1" parent="WIyWlLk6GJQsqaUBKTNV-1">
          <mxGeometry x="560" y="1109" width="120" height="60" as="geometry" />
        </mxCell>
        <mxCell id="XLbYOeynP4Yj3D1F5Rad-37" value="" style="curved=1;endArrow=classic;html=1;rounded=0;" edge="1" parent="WIyWlLk6GJQsqaUBKTNV-1" source="XLbYOeynP4Yj3D1F5Rad-21">
          <mxGeometry width="50" height="50" relative="1" as="geometry">
            <mxPoint x="80" y="1219" as="sourcePoint" />
            <mxPoint x="300" y="1280" as="targetPoint" />
          </mxGeometry>
        </mxCell>
        <mxCell id="XLbYOeynP4Yj3D1F5Rad-39" value="" style="curved=1;endArrow=classic;html=1;rounded=0;entryX=0.389;entryY=-0.054;entryDx=0;entryDy=0;entryPerimeter=0;" edge="1" parent="WIyWlLk6GJQsqaUBKTNV-1" source="XLbYOeynP4Yj3D1F5Rad-25" target="XLbYOeynP4Yj3D1F5Rad-40">
          <mxGeometry width="50" height="50" relative="1" as="geometry">
            <mxPoint x="290" y="1219" as="sourcePoint" />
            <mxPoint x="320" y="1270" as="targetPoint" />
          </mxGeometry>
        </mxCell>
        <mxCell id="XLbYOeynP4Yj3D1F5Rad-44" style="edgeStyle=orthogonalEdgeStyle;rounded=0;orthogonalLoop=1;jettySize=auto;html=1;exitX=0.5;exitY=1;exitDx=0;exitDy=0;" edge="1" parent="WIyWlLk6GJQsqaUBKTNV-1" source="XLbYOeynP4Yj3D1F5Rad-40">
          <mxGeometry relative="1" as="geometry">
            <mxPoint x="353.47368421052647" y="1390" as="targetPoint" />
          </mxGeometry>
        </mxCell>
        <mxCell id="XLbYOeynP4Yj3D1F5Rad-40" value="Tampilkan bilangan terbesar" style="shape=parallelogram;perimeter=parallelogramPerimeter;whiteSpace=wrap;html=1;fixedSize=1;" vertex="1" parent="WIyWlLk6GJQsqaUBKTNV-1">
          <mxGeometry x="260" y="1280" width="186" height="60" as="geometry" />
        </mxCell>
        <mxCell id="XLbYOeynP4Yj3D1F5Rad-42" value="" style="curved=1;endArrow=classic;html=1;rounded=0;entryX=0.553;entryY=-0.019;entryDx=0;entryDy=0;entryPerimeter=0;" edge="1" parent="WIyWlLk6GJQsqaUBKTNV-1" source="XLbYOeynP4Yj3D1F5Rad-28" target="XLbYOeynP4Yj3D1F5Rad-40">
          <mxGeometry width="50" height="50" relative="1" as="geometry">
            <mxPoint x="440" y="1219" as="sourcePoint" />
            <mxPoint x="440" y="1239.7106781186549" as="targetPoint" />
          </mxGeometry>
        </mxCell>
        <mxCell id="XLbYOeynP4Yj3D1F5Rad-43" value="" style="curved=1;endArrow=classic;html=1;rounded=0;entryX=0.695;entryY=0.016;entryDx=0;entryDy=0;entryPerimeter=0;" edge="1" parent="WIyWlLk6GJQsqaUBKTNV-1" source="XLbYOeynP4Yj3D1F5Rad-30" target="XLbYOeynP4Yj3D1F5Rad-40">
          <mxGeometry width="50" height="50" relative="1" as="geometry">
            <mxPoint x="620" y="1219" as="sourcePoint" />
            <mxPoint x="620" y="1239.7106781186549" as="targetPoint" />
          </mxGeometry>
        </mxCell>
        <mxCell id="XLbYOeynP4Yj3D1F5Rad-45" value="End" style="strokeWidth=2;html=1;shape=mxgraph.flowchart.terminator;whiteSpace=wrap;" vertex="1" parent="WIyWlLk6GJQsqaUBKTNV-1">
          <mxGeometry x="303" y="1390" width="100" height="60" as="geometry" />
        </mxCell>
      </root>
    </mxGraphModel>
  </diagram>
</mxfile>
